<svg height="600" version="1.1" width="800" xmlns="http://www.w3.org/2000/svg" preserveAspectRatio="xMidYMid meet" viewBox="0 0 600 442" xmlns:xlink="http://www.w3.org/1999/xlink"><desc>Created with Snap</desc><defs/><g id="root" contentwidth="137.25" contentheight="198.75">
          <rect class="background" height="2000%" width="2000%" y="-1000%" x="-1000%" style="" fill="none"/>
          <g class="content" id="content" transform="matrix(1,0,0,1,227.95,316.275)">
            <g class="icon" style="mask: url(#mask);">
            <svg height="137.25" version="1.1" width="137.25" xmlns="http://www.w3.org/2000/svg" x="3.4250000000000007" y="-194.65"><desc>Created with Snap</desc><defs/><svg xmlns="http://www.w3.org/2000/svg" xmlns:xlink="http://www.w3.org/1999/xlink" preserveAspectRatio="xMidYMid meet" viewBox="0 0 512 512">
<g fill="#000000" style="">
<svg class="icon" preserveAspectRatio="xMidYMid meet" version="1.0" viewBox="0 0 512 512">
<g>
<svg height="512" preserveAspectRatio="xMidYMid meet" width="512">
<svg version="1.1" viewBox="0 0 488 215">
<path d="M0 0 C0.7 0 1.3 0 2 0 C-0.8 26.5 -10.9 45.5 -30 64 C-28.7 63.9 -28.7 63.9 -27.4 63.9 C-3.8 63.3 20.7 73.6 40 87 C40 87.3 40 87.7 40 88 C38.7 88 37.4 87.9 36 87.9 C11.3 87.4 -8.8 94.1 -31.7 102.9 C-39.1 105.8 -46.1 108 -54 108.6 C-55.4 108.7 -55.4 108.7 -56.9 108.9 C-57.6 108.9 -58.3 108.9 -59 109 C-58.2 109.5 -57.5 110.1 -56.7 110.7 C-51.5 114.5 -46.5 118.3 -41.8 122.8 C-35 128.9 -28.7 132.5 -20 135 C-33.2 143.8 -61.1 134.1 -75.2 131.4 C-100.1 126.5 -119.3 128.3 -143.5 135 C-159 139.3 -175.8 143.8 -190.9 136 C-193.8 134.2 -194.9 133.3 -196 130 C-195.3 129.7 -194.6 129.4 -193.9 129.1 C-158.5 116.2 -158.5 116.2 -134.9 89.1 C-128.5 75.2 -119.9 63.1 -106 56 C-101.2 54.4 -96.2 53.4 -91.2 52.4 C-80.7 50.2 -70.8 47.8 -61 43 C-60 42.5 -60 42.5 -59.1 42.1 C-37.6 31.7 -16.9 16.9 0 0 Z M-83.8 72.6 C-89.2 75.7 -94.2 78.2 -100.3 79.7 C-109.1 82.3 -114.6 87.1 -119.1 95 C-119.7 96.3 -120.4 97.7 -121 99 C-117 97.1 -113.2 94.7 -109.4 92.3 C-102.2 88.4 -92.5 89.3 -84.6 90.6 C-79.6 91.1 -75.4 90.6 -71.2 87.8 C-69.7 86.6 -68.4 85.3 -67 84 C-67.7 83.7 -68.3 83.3 -69 83 C-70 83.5 -70 83.5 -71.1 83.9 C-75.1 85.4 -78.8 85.2 -83 85 C-82.7 79.6 -79.8 76.5 -76 73 C-69.5 68 -63 64.8 -55 63 C-55 62.7 -55 62.3 -55 62 C-66 61.7 -74.6 67.3 -83.8 72.6 Z " fill="#000000" transform="translate(196,0)" style=""/>
<path d="M0 0 C0 0.3 0 0.7 0 1 C-1.3 1.2 -1.3 1.2 -2.7 1.4 C-3.9 1.6 -5 1.8 -6.2 1.9 C-8 2.2 -8 2.2 -9.8 2.5 C-12.2 2.9 -14.6 3.3 -17 4 C-16.5 6.5 -16.5 6.5 -16 9 C-9.5 9.5 -4.3 8.1 1.9 6 C19.1 0.6 38.1 4.6 55.4 7.5 C65.5 9.1 75.3 10.2 85.5 10.2 C86.3 10.2 87.1 10.2 88 10.2 C96.3 10.1 104.1 9 112 6 C112 6.7 112 7.3 112 8 C99.9 17.5 86.1 21.6 71 22.8 C68.9 22.9 68.9 22.9 67 24 C80.9 27.8 94.7 30.4 109 32 C110.1 32.1 111.1 32.3 112.2 32.4 C119 33.1 125.8 33.1 132.6 33.1 C133.6 33.1 134.6 33.1 135.6 33.1 C141.8 33.1 147.8 32.7 154 32 C130.5 50.2 85.4 51.1 57 48 C48.3 46.8 40.8 44.4 33.1 40.3 C29.5 38.5 27 37.6 23 38 C23 41.1 23.3 43.2 25.4 45.6 C32.2 51.1 40.5 53.4 49 55 C49 55.7 49 56.3 49 57 C27.6 64.8 9.1 65.9 -12.6 58.5 C-22.1 55.2 -31 53.3 -41 52.4 C-57.2 50.9 -70.5 47.8 -84.9 40.1 C-102.8 30.6 -118.7 25.5 -139 25 C-129.2 14.8 -115.8 7.5 -101.5 6.8 C-95.9 6.8 -90.6 7 -85 8 C-69.7 9.2 -54.7 4.3 -40.1 0.3 C-26.6 -3.3 -13.1 -6.7 0 0 Z " fill="#000000" transform="translate(312,36)" style=""/>
<path d="M0 0 C1.7 4 0.2 7.4 -1.2 11.2 C-1.4 11.9 -1.6 12.6 -1.9 13.3 C-3.1 16.8 -4.5 20.2 -6.3 23.5 C-8.2 27.4 -8.5 29.8 -8 34 C-6.1 36.3 -6.1 36.3 -3.1 36.1 C4.4 34.7 11 29.4 17.2 25.1 C41.3 8.3 69.5 2.5 98.7 6.5 C105.8 7.9 112.4 10 119 13 C118.7 13.7 118.3 14.3 118 15 C116.9 14.8 115.8 14.7 114.7 14.5 C83.9 10.7 58.2 18.2 33.1 35.7 C11.3 50.9 -12.4 64.5 -40 62 C-46.3 60.7 -52.1 58.4 -58 55.9 C-65.2 52.9 -73.2 51.8 -81 52 C-80.6 51.4 -80.2 50.7 -79.8 50.1 C-76.4 44.7 -74.2 40.2 -73 34 C-73.7 34.3 -74.4 34.7 -75.1 35 C-91.3 42.3 -106.1 42.8 -123.4 39.4 C-132.6 37.7 -140.5 37.5 -149.6 39.7 C-150.4 39.9 -151.2 40 -152 40.2 C-157.1 41.4 -162 43 -166.9 44.8 C-176.8 48.2 -186.3 48.4 -196 44 C-199.6 41.9 -202.8 39.5 -206 37 C-206.6 36.5 -207.2 36.1 -207.8 35.6 C-219.1 26.9 -219.1 26.9 -222 24 C-220.1 22.1 -217.3 22.3 -214.7 21.8 C-201.5 19.4 -189.2 15.4 -176.8 10.6 C-143.8 -2.2 -105 0.7 -71.7 10.8 C-65.5 12.7 -59.2 14 -52.8 14.9 C-51.5 15.1 -51.5 15.1 -50.2 15.2 C-35.4 17.1 -19.4 16.2 -6.8 7.4 C-4 5.1 -2 3.1 0 0 Z " fill="#000000" transform="translate(369,88)" style=""/>
<path d="M0 0 C13.4 9.9 27 18.4 44.2 18.3 C45.8 18.3 45.8 18.3 47.4 18.3 C48.5 18.3 49.6 18.3 50.8 18.3 C51.9 18.3 53 18.3 54.2 18.3 C56.9 18.3 59.6 18.2 62.4 18.2 C44 27.8 12.7 25.6 -6.6 19.8 C-17.1 16.6 -26.3 11.8 -35.9 6.7 C-45.9 1.4 -55.7 -2.9 -66.6 -5.8 C-67.8 -6.1 -69 -6.4 -70.2 -6.7 C-77.6 -8.5 -85.1 -9.4 -92.7 -10 C-96.4 -10.4 -98.4 -10.7 -101.6 -12.8 C-96.5 -13.6 -91.4 -14.4 -86.3 -15.3 C-84.6 -15.6 -82.8 -15.8 -81.1 -16.1 C-78.6 -16.5 -76.1 -17 -73.6 -17.4 C-72.4 -17.6 -72.4 -17.6 -71.3 -17.7 C-42.9 -22.3 -22.9 -16.9 0 0 Z " fill="#000000" transform="translate(354.609375,191.7734375)" style=""/>
<path d="M0 0 C2.5 0.5 2.5 0.5 5 1 C1.8 3.1 1 3.2 -2.7 3.2 C-3.6 3.2 -4.5 3.2 -5.4 3.2 C-6.8 3.2 -6.8 3.2 -8.2 3.1 C-9.1 3.1 -10.1 3.1 -11 3.1 C-13.4 3.1 -15.7 3 -18 3 C-18 2.7 -18 2.3 -18 2 C-12.1 2 -6.1 2 0 2 C0 1.3 0 0.7 0 0 Z " fill="#000000" transform="translate(171,134)" style=""/>
<path d="M0 0 C0.7 0.3 1.3 0.7 2 1 C0.5 2.5 0.5 2.5 -1 4 C2.3 4.3 5.6 4.7 9 5 C9 5.3 9 5.7 9 6 C4.1 6 -0.9 6 -6 6 C-4 4 -2 2 0 0 Z " fill="#000000" transform="translate(179,55)" style=""/>
<path d="" fill="#000000" transform="translate(0,0)" style=""/>
<desc>Created with Snap</desc><defs/></svg>
<desc>Created with Snap</desc><defs/></svg>
</g>
<desc>Created with Snap</desc><defs/></svg>
</g>
<desc>Created with Snap</desc><defs/></svg></svg></g>
            <g id="icon_name_and_slogan_gap">
            </g>
            <g class="name_and_slogan" id="name_and_slogan_id">
              <g class="name"><g id="nameDefaultGroup"><path d="M20 -46.8L20.3 -46.8Q28.2 -43.3 29.5 -38.9L29.5 -38.9L29.5 -38.5Q29.2 -38.5 29.2 -38.2L29.2 -38.2L29.5 -38.2Q29.5 -36.7 26.4 -35.7L26.4 -35.7Q26.4 -35.1 24.1 -33.5L24.1 -33.5Q24.1 -32.9 21.9 -31.2L21.9 -31.2Q19.7 -28.9 19.7 -28.4L19.7 -28.4L22.5 -28.4Q24.6 -28.4 26 -31L26 -31L26 -32.5L26.4 -32.5Q26.9 -32.4 26.9 -31.9L26.9 -31.9L28.5 -32.2Q32.7 -30.3 32.7 -29L32.7 -29L27.3 -21.1Q28 -20.9 30.5 -17.9L30.5 -17.9Q32 -19.6 32 -20.2L32 -20.2L32.3 -20.2L32.3 -19.9Q32.3 -18.8 31.1 -15.1L31.1 -15.1Q31.7 -11 31.7 -6.6L31.7 -6.6Q31.1 -5.1 30.5 -5L30.5 -5Q26.6 -5 26.6 -7.2L26.6 -7.2L25.3 -8.4Q22.8 -5.5 12.7 -3.7L12.7 -3.7L12.1 -3.7Q11.5 -3.7 9.2 -10.9L9.2 -10.9Q14.9 -19.2 15.8 -20.2L15.8 -20.2L15.8 -20.4L13.7 -19.9L13.7 -20.2L13 -19.9L12.7 -19.9Q10.7 -19.9 10.2 -23.6L10.2 -23.6Q9.2 -25.8 9.2 -27.1L9.2 -27.1L9.2 -28.4L21 -43.6L21 -43.9Q21 -45.6 20 -46.8L20 -46.8M52.9 -36.9Q62.1 -35.9 62.1 -34.1L62.1 -34.1Q62.8 -32 62.8 -31.2L62.8 -31.2L62.4 -30.6Q62.4 -30.3 62.8 -30.3L62.8 -30.3L59.9 -20.8Q58.8 -15.7 55.2 -9.4L55.2 -9.4Q54.2 -6.1 51 -0.5L51 -0.5Q49.5 0.1 48.8 1.9L48.8 1.9Q49.1 1.9 49.1 2.2L49.1 2.2L48.5 2.2L47.9 1.9L47.5 3.5L47.2 3.5Q46.6 3.5 42.5 -2.1L42.5 -2.1Q39.9 -4.1 38.4 -7.8L38.4 -7.8Q37.3 -9.3 35.5 -10.9L35.5 -10.9L35.5 -11.6Q37.7 -10.7 41.5 -10.4L41.5 -10.4Q41.6 -10.1 46.3 -7.2L46.3 -7.2L46.9 -7.2Q53.6 -24.2 53.6 -28.1L53.6 -28.1L53.6 -29L53.3 -29Q51.3 -29 43.4 -25.6L43.4 -25.6L40.9 -25.6Q37.7 -25.6 34.8 -29.4L34.8 -29.4L34.6 -29.4L34.6 -30L39.6 -33.5Q48.3 -36.9 52.9 -36.9L52.9 -36.9M19.7 -12.9L19.7 -12.5Q26.4 -13.5 26.4 -18.9L26.4 -18.9Q26.6 -18.9 26.6 -20.2L26.6 -20.2L26.4 -20.2Q24.5 -18.6 19.7 -12.9L19.7 -12.9M91.2 -47.4Q91.8 -47.4 92.3 -47.1L92.3 -47.1L92.9 -47.4Q97.3 -47.4 101.5 -43.6L101.5 -43.6Q102.1 -41.3 102.1 -41L102.1 -41Q101.8 -41 101.8 -40.8L101.8 -40.8Q103.8 -40.5 106.4 -39.6L106.4 -39.6Q106.4 -35.9 103.8 -35.9L103.8 -35.9Q101.8 -35.6 101.8 -34.4L101.8 -34.4Q102.2 -33.3 102.7 -33.3L102.7 -33.3L106.4 -33.3Q109.6 -32.8 109.6 -30.7L109.6 -30.7Q109.3 -30.1 109.3 -29.8L109.3 -29.8Q111.2 -28.4 112.2 -28.4L112.2 -28.4L112.8 -28.4Q113.3 -28.4 113.3 -28.9L113.3 -28.9Q113.3 -37.9 110.4 -37.9L110.4 -37.9L109.9 -38.7L109.9 -39Q112.3 -39.6 113 -39.6L113 -39.6Q120.2 -38.3 120.2 -35.6L120.2 -35.6Q120 -35 120 -34.7L120 -34.7L120.2 -34.1Q119.7 -32.7 119.7 -31.8L119.7 -31.8L120 -31.8Q121.7 -32.5 121.7 -33L121.7 -33L121.7 -41.9Q121.7 -42.6 118.5 -43.6L118.5 -43.6L118.5 -43.9Q119.1 -46.5 122 -46.5L122 -46.5Q123.6 -45.6 124.3 -45.6L124.3 -45.6Q124.8 -45.9 125.1 -45.9L125.1 -45.9Q127.5 -45.9 129.7 -40.5L129.7 -40.5Q128.6 -38.9 128.6 -36.4L128.6 -36.4L128.6 -35.3Q128.6 -34.8 132 -34.1L132 -34.1Q133.5 -32.8 133.5 -31.5L133.5 -31.5Q132.3 -30.2 129.2 -29.5L129.2 -29.5Q128.6 -28.6 128.6 -27.8L128.6 -27.8L128.6 -24.9Q128 -22.7 127.2 -12.2L127.2 -12.2L130.3 -12.2Q133.7 -12.2 134.9 -9.1L134.9 -9.1Q134.9 -5.9 132.3 -5.9L132.3 -5.9Q132 -5.9 125.4 -6.8L125.4 -6.8L123.4 -6.8Q123.1 -6.8 123.1 -7.1L123.1 -7.1L122.5 -6.8L121.7 -6.8Q119.9 -6.8 112.5 -4.8L112.5 -4.8L112.2 -4.8L112.2 -4.5Q113.1 -2.4 113.9 -2.4L113.9 -2.4L116.2 -3.9L116.5 -3.9L116.5 -3.3Q116.5 -2.7 114.8 0.4L114.8 0.4Q115.3 1.3 115.3 2.1L115.3 2.1Q115.3 2.5 112.8 4.1L112.8 4.1L111.9 4.1Q110.5 4.1 108.7 -1.3L108.7 -1.3Q108.7 -1.6 109 -2.2L109 -2.2L108.7 -2.7L109 -4.2Q108.7 -4.2 106.7 -5.9L106.7 -5.9Q104.6 -1.9 101.2 -0.1L101.2 -0.1Q100.1 0.6 100.1 1.2L100.1 1.2L99.2 1.2Q98.8 1.2 96 -3L96 -3L95.8 -3Q95 -2.8 92.6 1.2L92.6 1.2L92.3 1.2Q90.2 -0.6 89.7 -3L89.7 -3L89.4 -3Q88.6 0.1 86.5 1.5L86.5 1.5L84.2 2.7L84 2.7Q84 1.6 82.5 -0.7L82.5 -0.7Q81.1 -4.8 81.1 -5L81.1 -5Q81.1 -6.5 83.4 -6.5L83.4 -6.5Q86.2 -10.2 89.1 -29.2L89.1 -29.2Q85.4 -33.5 85.4 -35.3L85.4 -35.3L85.7 -35.3Q87.1 -34.4 88 -34.4L88 -34.4L88.6 -34.4Q89.1 -34.4 89.1 -35L89.1 -35L88.8 -36.4Q92.7 -37.9 94 -41.6L94 -41.6Q93.7 -42.8 91.7 -44.5L91.7 -44.5Q91.2 -45.4 91.2 -45.9L91.2 -45.9L91.4 -45.9L91.2 -46.5L91.2 -47.4M97.8 -32.4L98.1 -30.7L98.4 -30.7Q98.8 -30.7 99.2 -31.5L99.2 -31.5L98.9 -33L98.4 -33Q97.8 -32.9 97.8 -32.4L97.8 -32.4M93.2 -28.4L93.2 -28.1Q93.2 -27.6 94 -27.2L94 -27.2L94.6 -27.2Q95.1 -27.2 95.5 -28.7L95.5 -28.7L94.9 -30.7Q93.2 -30.1 93.2 -28.4L93.2 -28.4M102.7 -27.5L102.7 -26.1L103.5 -26.1L103.5 -28.4Q103.1 -28.4 102.7 -27.5L102.7 -27.5M109 -28.4Q108.4 -24.8 104.1 -18.9L104.1 -18.9Q103.6 -18.6 103 -18.6L103 -18.6L102.7 -18.6Q102.4 -18.6 100.9 -20.6L100.9 -20.6L100.7 -20.6L100.7 -20.3Q103.5 -17.3 103.5 -16L103.5 -16L103.2 -16Q103.5 -15.5 103.5 -14.8L103.5 -14.8L103.8 -14.8Q104.4 -14.8 106.7 -15.4L106.7 -15.4Q107.9 -15 107.9 -14.5L107.9 -14.5L107.9 -13.1L105.8 -10.5L105.8 -10.2Q107.4 -10.2 108.4 -9.4L108.4 -9.4Q110.9 -9.6 112.8 -10.2L112.8 -10.2L112.8 -10.5L111.9 -11.7L111.9 -14Q112.8 -20.5 112.8 -25.2L112.8 -25.2Q111.1 -25.2 109.6 -28.4L109.6 -28.4L109 -28.4M118.2 -24.3L118.2 -24Q118.3 -23.5 118.8 -23.5L118.8 -23.5L119.1 -23.5Q119.1 -23.9 119.7 -24.6L119.7 -24.6L120.2 -24.3L121.4 -24.3L121.4 -26.9Q118.6 -26.9 118.2 -24.3L118.2 -24.3M93.7 -24.9L93.7 -21.7L94 -21.7Q94.8 -22.3 95.2 -22.3L95.2 -22.3L95.2 -22.6Q95.2 -24.2 93.7 -24.9L93.7 -24.9M97.2 -18.6Q95.2 -16 94.3 -16L94.3 -16L94.9 -14L95.5 -14Q95.5 -14.8 98.9 -15.7L98.9 -15.7L98.9 -16.8Q98.9 -18.6 97.2 -18.6L97.2 -18.6M117.6 -16.3L117.6 -15.7Q121.4 -16.7 121.4 -17.1L121.4 -17.1L121.4 -18.3Q117.6 -17.1 117.6 -16.3L117.6 -16.3M118.5 -12Q118 -12.2 117.4 -12.2L117.4 -12.2L117.4 -11.7L121.4 -11.7L121.4 -12.5Q118.8 -12 118.5 -12L118.5 -12M91.9 -13.8L91.9 -12.6L90 -5.6L90.3 -5.6Q90.9 -5.6 91.7 -9.1L91.7 -9.1Q92.4 -12.8 92.4 -13.8L92.4 -13.8L91.9 -13.8M95.2 -7.3L95.2 -6.2L95.5 -6.2Q98.1 -7.3 98.1 -9.1L98.1 -9.1L98.1 -9.9L97.8 -9.9Q95.2 -8.9 95.2 -7.3L95.2 -7.3M102.7 -6.2L103.2 -6.2Q105.6 -7.5 105.6 -9.1L105.6 -9.1L104.7 -9.6L104.4 -9.6Q102.7 -8.6 102.7 -6.2L102.7 -6.2M122 -6.5L122.5 -6.2L123.1 -6.5Q125.3 -6.5 130.3 -3.6L130.3 -3.6Q132.6 -1.1 132.6 0.4L132.6 0.4Q132.3 4.1 129.7 4.1L129.7 4.1L128.6 4.1Q127.4 4.1 126 2.1L126 2.1L121.7 2.1Q121.2 2.1 120.8 1.2L120.8 1.2Q123.7 -1 123.7 -2.4L123.7 -2.4Q121.7 -5.3 120.5 -5.3L120.5 -5.3L120.5 -5.6Q121 -5.6 122 -6.5L122 -6.5M98.4 -25.8L98.4 -24.4L100 -24.4L100 -26.7Q99.2 -26.7 98.4 -25.8L98.4 -25.8z" style="" fill="#000000" id="namepathdata"/></g></g>
              <g class="slogan"><g id="sloganDefaultGroup"/></g>
            </g>
            <g class="border">
            </g>
          </g>
          
          <defs id="defs">
            <mask xmlns="http://www.w3.org/2000/svg" id="mask">
                <rect id="showAll" fill="white" x="3.4250000000000007" y="-194.65" width="137.25" height="137.25"/>
                <rect id="hideNameBg" fill="black" x="0" y="0" width="0" height="0" stroke-width="2" stroke="black"/>
                <rect id="hideSloganBg" fill="black" x="0" y="0" width="0" height="0" stroke-width="2" stroke="black"/>
            <path d="M20 -46.8L20.3 -46.8Q28.2 -43.3 29.5 -38.9L29.5 -38.9L29.5 -38.5Q29.2 -38.5 29.2 -38.2L29.2 -38.2L29.5 -38.2Q29.5 -36.7 26.4 -35.7L26.4 -35.7Q26.4 -35.1 24.1 -33.5L24.1 -33.5Q24.1 -32.9 21.9 -31.2L21.9 -31.2Q19.7 -28.9 19.7 -28.4L19.7 -28.4L22.5 -28.4Q24.6 -28.4 26 -31L26 -31L26 -32.5L26.4 -32.5Q26.9 -32.4 26.9 -31.9L26.9 -31.9L28.5 -32.2Q32.7 -30.3 32.7 -29L32.7 -29L27.3 -21.1Q28 -20.9 30.5 -17.9L30.5 -17.9Q32 -19.6 32 -20.2L32 -20.2L32.3 -20.2L32.3 -19.9Q32.3 -18.8 31.1 -15.1L31.1 -15.1Q31.7 -11 31.7 -6.6L31.7 -6.6Q31.1 -5.1 30.5 -5L30.5 -5Q26.6 -5 26.6 -7.2L26.6 -7.2L25.3 -8.4Q22.8 -5.5 12.7 -3.7L12.7 -3.7L12.1 -3.7Q11.5 -3.7 9.2 -10.9L9.2 -10.9Q14.9 -19.2 15.8 -20.2L15.8 -20.2L15.8 -20.4L13.7 -19.9L13.7 -20.2L13 -19.9L12.7 -19.9Q10.7 -19.9 10.2 -23.6L10.2 -23.6Q9.2 -25.8 9.2 -27.1L9.2 -27.1L9.2 -28.4L21 -43.6L21 -43.9Q21 -45.6 20 -46.8L20 -46.8M52.9 -36.9Q62.1 -35.9 62.1 -34.1L62.1 -34.1Q62.8 -32 62.8 -31.2L62.8 -31.2L62.4 -30.6Q62.4 -30.3 62.8 -30.3L62.8 -30.3L59.9 -20.8Q58.8 -15.7 55.2 -9.4L55.2 -9.4Q54.2 -6.1 51 -0.5L51 -0.5Q49.5 0.1 48.8 1.9L48.8 1.9Q49.1 1.9 49.1 2.2L49.1 2.2L48.5 2.2L47.9 1.9L47.5 3.5L47.2 3.5Q46.6 3.5 42.5 -2.1L42.5 -2.1Q39.9 -4.1 38.4 -7.8L38.4 -7.8Q37.3 -9.3 35.5 -10.9L35.5 -10.9L35.5 -11.6Q37.7 -10.7 41.5 -10.4L41.5 -10.4Q41.6 -10.1 46.3 -7.2L46.3 -7.2L46.9 -7.2Q53.6 -24.2 53.6 -28.1L53.6 -28.1L53.6 -29L53.3 -29Q51.3 -29 43.4 -25.6L43.4 -25.6L40.9 -25.6Q37.7 -25.6 34.8 -29.4L34.8 -29.4L34.6 -29.4L34.6 -30L39.6 -33.5Q48.3 -36.9 52.9 -36.9L52.9 -36.9M19.7 -12.9L19.7 -12.5Q26.4 -13.5 26.4 -18.9L26.4 -18.9Q26.6 -18.9 26.6 -20.2L26.6 -20.2L26.4 -20.2Q24.5 -18.6 19.7 -12.9L19.7 -12.9M91.2 -47.4Q91.8 -47.4 92.3 -47.1L92.3 -47.1L92.9 -47.4Q97.3 -47.4 101.5 -43.6L101.5 -43.6Q102.1 -41.3 102.1 -41L102.1 -41Q101.8 -41 101.8 -40.8L101.8 -40.8Q103.8 -40.5 106.4 -39.6L106.4 -39.6Q106.4 -35.9 103.8 -35.9L103.8 -35.9Q101.8 -35.6 101.8 -34.4L101.8 -34.4Q102.2 -33.3 102.7 -33.3L102.7 -33.3L106.4 -33.3Q109.6 -32.8 109.6 -30.7L109.6 -30.7Q109.3 -30.1 109.3 -29.8L109.3 -29.8Q111.2 -28.4 112.2 -28.4L112.2 -28.4L112.8 -28.4Q113.3 -28.4 113.3 -28.9L113.3 -28.9Q113.3 -37.9 110.4 -37.9L110.4 -37.9L109.9 -38.7L109.9 -39Q112.3 -39.6 113 -39.6L113 -39.6Q120.2 -38.3 120.2 -35.6L120.2 -35.6Q120 -35 120 -34.7L120 -34.7L120.2 -34.1Q119.7 -32.7 119.7 -31.8L119.7 -31.8L120 -31.8Q121.7 -32.5 121.7 -33L121.7 -33L121.7 -41.9Q121.7 -42.6 118.5 -43.6L118.5 -43.6L118.5 -43.9Q119.1 -46.5 122 -46.5L122 -46.5Q123.6 -45.6 124.3 -45.6L124.3 -45.6Q124.8 -45.9 125.1 -45.9L125.1 -45.9Q127.5 -45.9 129.7 -40.5L129.7 -40.5Q128.6 -38.9 128.6 -36.4L128.6 -36.4L128.6 -35.3Q128.6 -34.8 132 -34.1L132 -34.1Q133.5 -32.8 133.5 -31.5L133.5 -31.5Q132.3 -30.2 129.2 -29.5L129.2 -29.5Q128.6 -28.6 128.6 -27.8L128.6 -27.8L128.6 -24.9Q128 -22.7 127.2 -12.2L127.2 -12.2L130.3 -12.2Q133.7 -12.2 134.9 -9.1L134.9 -9.1Q134.9 -5.9 132.3 -5.9L132.3 -5.9Q132 -5.9 125.4 -6.8L125.4 -6.8L123.4 -6.8Q123.1 -6.8 123.1 -7.1L123.1 -7.1L122.5 -6.8L121.7 -6.8Q119.9 -6.8 112.5 -4.8L112.5 -4.8L112.2 -4.8L112.2 -4.5Q113.1 -2.4 113.9 -2.4L113.9 -2.4L116.2 -3.9L116.5 -3.9L116.5 -3.3Q116.5 -2.7 114.8 0.4L114.8 0.4Q115.3 1.3 115.3 2.1L115.3 2.1Q115.3 2.5 112.8 4.1L112.8 4.1L111.9 4.1Q110.5 4.1 108.7 -1.3L108.7 -1.3Q108.7 -1.6 109 -2.2L109 -2.2L108.7 -2.7L109 -4.2Q108.7 -4.2 106.7 -5.9L106.7 -5.9Q104.6 -1.9 101.2 -0.1L101.2 -0.1Q100.1 0.6 100.1 1.2L100.1 1.2L99.2 1.2Q98.8 1.2 96 -3L96 -3L95.8 -3Q95 -2.8 92.6 1.2L92.6 1.2L92.3 1.2Q90.2 -0.6 89.7 -3L89.7 -3L89.4 -3Q88.6 0.1 86.5 1.5L86.5 1.5L84.2 2.7L84 2.7Q84 1.6 82.5 -0.7L82.5 -0.7Q81.1 -4.8 81.1 -5L81.1 -5Q81.1 -6.5 83.4 -6.5L83.4 -6.5Q86.2 -10.2 89.1 -29.2L89.1 -29.2Q85.4 -33.5 85.4 -35.3L85.4 -35.3L85.7 -35.3Q87.1 -34.4 88 -34.4L88 -34.4L88.6 -34.4Q89.1 -34.4 89.1 -35L89.1 -35L88.8 -36.4Q92.7 -37.9 94 -41.6L94 -41.6Q93.7 -42.8 91.7 -44.5L91.7 -44.5Q91.2 -45.4 91.2 -45.9L91.2 -45.9L91.4 -45.9L91.2 -46.5L91.2 -47.4M97.8 -32.4L98.1 -30.7L98.4 -30.7Q98.8 -30.7 99.2 -31.5L99.2 -31.5L98.9 -33L98.4 -33Q97.8 -32.9 97.8 -32.4L97.8 -32.4M93.2 -28.4L93.2 -28.1Q93.2 -27.6 94 -27.2L94 -27.2L94.6 -27.2Q95.1 -27.2 95.5 -28.7L95.5 -28.7L94.9 -30.7Q93.2 -30.1 93.2 -28.4L93.2 -28.4M102.7 -27.5L102.7 -26.1L103.5 -26.1L103.5 -28.4Q103.1 -28.4 102.7 -27.5L102.7 -27.5M109 -28.4Q108.4 -24.8 104.1 -18.9L104.1 -18.9Q103.6 -18.6 103 -18.6L103 -18.6L102.7 -18.6Q102.4 -18.6 100.9 -20.6L100.9 -20.6L100.7 -20.6L100.7 -20.3Q103.5 -17.3 103.5 -16L103.5 -16L103.2 -16Q103.5 -15.5 103.5 -14.8L103.5 -14.8L103.8 -14.8Q104.4 -14.8 106.7 -15.4L106.7 -15.4Q107.9 -15 107.9 -14.5L107.9 -14.5L107.9 -13.1L105.8 -10.5L105.8 -10.2Q107.4 -10.2 108.4 -9.4L108.4 -9.4Q110.9 -9.6 112.8 -10.2L112.8 -10.2L112.8 -10.5L111.9 -11.7L111.9 -14Q112.8 -20.5 112.8 -25.2L112.8 -25.2Q111.1 -25.2 109.6 -28.4L109.6 -28.4L109 -28.4M118.2 -24.3L118.2 -24Q118.3 -23.5 118.8 -23.5L118.8 -23.5L119.1 -23.5Q119.1 -23.9 119.7 -24.6L119.7 -24.6L120.2 -24.3L121.4 -24.3L121.4 -26.9Q118.6 -26.9 118.2 -24.3L118.2 -24.3M93.7 -24.9L93.7 -21.7L94 -21.7Q94.8 -22.3 95.2 -22.3L95.2 -22.3L95.2 -22.6Q95.2 -24.2 93.7 -24.9L93.7 -24.9M97.2 -18.6Q95.2 -16 94.3 -16L94.3 -16L94.9 -14L95.5 -14Q95.5 -14.8 98.9 -15.7L98.9 -15.7L98.9 -16.8Q98.9 -18.6 97.2 -18.6L97.2 -18.6M117.6 -16.3L117.6 -15.7Q121.4 -16.7 121.4 -17.1L121.4 -17.1L121.4 -18.3Q117.6 -17.1 117.6 -16.3L117.6 -16.3M118.5 -12Q118 -12.2 117.4 -12.2L117.4 -12.2L117.4 -11.7L121.4 -11.7L121.4 -12.5Q118.8 -12 118.5 -12L118.5 -12M91.9 -13.8L91.9 -12.6L90 -5.6L90.3 -5.6Q90.9 -5.6 91.7 -9.1L91.7 -9.1Q92.4 -12.8 92.4 -13.8L92.4 -13.8L91.9 -13.8M95.2 -7.3L95.2 -6.2L95.5 -6.2Q98.1 -7.3 98.1 -9.1L98.1 -9.1L98.1 -9.9L97.8 -9.9Q95.2 -8.9 95.2 -7.3L95.2 -7.3M102.7 -6.2L103.2 -6.2Q105.6 -7.5 105.6 -9.1L105.6 -9.1L104.7 -9.6L104.4 -9.6Q102.7 -8.6 102.7 -6.2L102.7 -6.2M122 -6.5L122.5 -6.2L123.1 -6.5Q125.3 -6.5 130.3 -3.6L130.3 -3.6Q132.6 -1.1 132.6 0.4L132.6 0.4Q132.3 4.1 129.7 4.1L129.7 4.1L128.6 4.1Q127.4 4.1 126 2.1L126 2.1L121.7 2.1Q121.2 2.1 120.8 1.2L120.8 1.2Q123.7 -1 123.7 -2.4L123.7 -2.4Q121.7 -5.3 120.5 -5.3L120.5 -5.3L120.5 -5.6Q121 -5.6 122 -6.5L122 -6.5M98.4 -25.8L98.4 -24.4L100 -24.4L100 -26.7Q99.2 -26.7 98.4 -25.8L98.4 -25.8z" style="stroke-width: 0;" fill="#000000" id="masknamepathdata" stroke="#000000" paint-order="stroke" transform="matrix(1,0,0,1,0,0)"/></mask>
          </defs>
          
        </g>
        </svg>